PathFileType	4	(X/Y/Z)	c:\Git\powerlifing_model_clean\simulations\HC835B\Session1\HC835B_OGW_0001\marker_experimental.trc
DataRate	CameraRate	NumFrames	NumMarkers	Units	OrigDataRate	OrigDataStartFrame	OrigNumFrames
240.000000	240.000000	4	38	mm	240.000000	324	433
Frame#	Time	RPSI			LPSI			RASI			LASI			RTH1			RTH2			RTH3			RTH4			RSK1			RSK2			RSK3			RSK4			RCAL1			RCAL2			RCAL3			RST			RPT			RTN			RFMB			RSMB			RVMB			RFMH			RSMH			RVMH			RPM			LTH1			LTH2			LTH3			LTH4			LSK1			LSK2			LSK3			LSK4			LCAL1			LCAL2			LCAL3			LFMH			LVMH			
		X1	Y1	Z1	X2	Y2	Z2	X3	Y3	Z3	X4	Y4	Z4	X5	Y5	Z5	X6	Y6	Z6	X7	Y7	Z7	X8	Y8	Z8	X9	Y9	Z9	X10	Y10	Z10	X11	Y11	Z11	X12	Y12	Z12	X13	Y13	Z13	X14	Y14	Z14	X15	Y15	Z15	X16	Y16	Z16	X17	Y17	Z17	X18	Y18	Z18	X19	Y19	Z19	X20	Y20	Z20	X21	Y21	Z21	X22	Y22	Z22	X23	Y23	Z23	X24	Y24	Z24	X25	Y25	Z25	X26	Y26	Z26	X27	Y27	Z27	X28	Y28	Z28	X29	Y29	Z29	X30	Y30	Z30	X31	Y31	Z31	X32	Y32	Z32	X33	Y33	Z33	X34	Y34	Z34	X35	Y35	Z35	X36	Y36	Z36	X37	Y37	Z37	X38	Y38	Z38	

325	1.35	419.5714721679689	1150.534790039063	-235.5868835449219	529.6160278320314	1145.612548828125	-239.7761230468751	364.7260437011719	1112.41943359375	-25.17583274841309	609.1033325195314	1108.073364257813	-34.53309631347657	301.2650756835938	828.0576171875002	-84.72786712646486	314.7526245117188	819.3352661132815	-25.55658531188966	318.2114257812501	748.3271484375001	-58.76160049438478	342.6974487304688	741.0186767578126	-5.660786151885987	381.7539978027344	300.3377075195313	-141.5817413330078	379.7270202636719	283.7867736816407	-82.25794982910158	388.5207824707032	243.7403869628907	-127.3546829223633	399.3977661132814	229.5415039062501	-69.74227142333986	460.1921691894532	96.07280731201175	-187.5313415527344	490.8453979492189	58.76221084594728	-175.3037719726563	427.189666748047	59.44309234619142	-185.7354736328125	498.0626831054689	75.64802551269533	-106.5764083862305	397.8200683593751	72.99468994140626	-128.9324951171875	479.478485107422	96.75067901611331	-52.27937698364259	471.3490600585939	81.19773101806642	-20.75827407836914	422.687713623047	105.9217376708985	-17.0033187866211	382.0478820800782	49.31071090698244	-86.34834289550783	467.6287841796876	55.93392944335939	34.31041717529298	412.9737854003907	71.34563446044923	42.78372955322266	359.4343261718751	46.06450271606446	-8.840688705444338	418.9636535644532	61.09210205078126	101.2208023071289	693.1756591796876	831.211364746094	-50.03118896484376	701.3167724609376	840.5312500000002	8.277551651000978	703.7807006835939	760.6789550781251	-4.48155689239502	694.2476806640626	768.2866210937502	55.03347015380861	658.4959106445314	427.1743469238282	-184.158676147461	672.4371337890626	381.8415832519532	-159.5990905761719	656.9213867187501	375.1553344726563	-206.3811798095704	654.1687011718751	328.7879333496094	-174.9055328369141	584.3452758789064	307.3716430664063	-326.7764282226563	607.0482177734376	280.9944152832032	-359.5819091796876	550.0549316406251	279.6242675781251	-344.8554687500001	576.6968383789064	120.3555221557617	-196.1627655029297	667.6210937500001	125.7033920288086	-260.9341125488282	
326	1.354166666666667	419.5320434570314	1151.8017578125	-229.1993408203126	529.6082153320314	1146.828735351563	-233.4522247314454	364.5448608398438	1113.256713867188	-19.06388282775879	608.4611816406251	1109.75390625	-28.01136779785157	301.0873413085938	828.8750610351565	-81.16079711914064	314.9380798339844	819.5569458007815	-21.73317337036133	317.7958984375001	748.8562622070314	-55.93661117553712	342.3297119140626	740.8967895507814	-2.865155458450318	381.9713745117188	300.8446960449219	-141.3223419189453	379.5972290039063	284.2258911132813	-82.04823303222658	388.546844482422	244.7949371337891	-126.949089050293	399.1803588867189	229.8846130371094	-69.5353469848633	460.2993164062501	96.32928466796878	-187.3261413574219	490.9389648437501	58.99760818481447	-175.2166290283203	427.2960510253907	59.68570709228517	-185.6506652832032	498.0955810546876	75.76325988769533	-106.4160537719727	397.8956604003907	73.13984680175783	-128.8820343017578	479.4932250976564	96.85459136962893	-52.11351776123048	471.813201904297	81.89822387695314	-20.18075942993164	422.7484436035157	105.7502899169922	-17.65147018432618	382.1144409179688	49.43131637573244	-86.25680541992189	467.557830810547	55.90230941772462	34.39856338500977	412.9307861328126	71.25823974609376	42.86843872070313	359.4355773925782	46.02954101562501	-8.812862396240236	418.9023437500001	60.94996643066408	101.3168334960938	694.5190429687501	833.4900512695315	-42.72640228271485	700.9887695312501	842.9581298828127	17.12502098083496	703.6737670898439	762.9765014648439	5.07648515701294	693.6103515625001	771.1712036132815	64.44709777832033	658.1443481445314	425.8181152343751	-170.6214599609375	671.9290161132814	381.0895080566407	-145.3519897460938	656.5362548828126	373.4289855957032	-191.9991455078125	653.7548828125001	327.5801696777344	-159.7139434814453	583.9373779296876	303.1482238769532	-311.3709106445313	606.7319946289064	276.2311401367188	-343.7044677734376	549.7250366210939	275.0733642578126	-328.8374023437501	576.5865478515626	119.004135131836	-176.5748291015625	667.5820312500001	123.19140625	-241.6734924316407	
327	1.358333333333333	419.3900146484376	1152.942749023438	-222.792953491211	529.5667724609376	1148.14990234375	-227.0035858154297	364.3711547851563	1114.042358398438	-12.99681854248047	607.7629394531251	1111.309692382813	-21.4979305267334	300.7858276367188	829.6715087890627	-77.5968475341797	314.1476745605469	819.454772949219	-18.43111419677735	317.8794250488282	749.1346435546876	-52.94171142578126	342.0130004882813	740.7957763671876	-0.04492589458823205	382.2257995605469	301.3692932128907	-141.0622253417969	379.5321960449219	284.6185607910157	-81.78253173828126	388.6021728515626	245.3255004882813	-126.6493225097657	399.0278930664064	230.3298797607422	-69.27626800537111	460.4284973144532	96.58766937255862	-187.1360778808594	491.0694885253907	59.07867813110353	-175.0389251708985	427.425018310547	60.0177574157715	-185.5335083007813	498.158172607422	75.81711578369142	-106.2316513061524	398.0137329101564	73.25850677490236	-128.7751922607422	479.5222473144532	96.91455841064456	-51.90724182128908	471.358367919922	81.26833343505861	-20.46759223937989	422.6773071289064	105.9897232055664	-16.6821460723877	382.2000427246094	49.51970672607423	-86.16788482666017	467.4953002929689	55.8355178833008	34.46855545043946	412.8782653808595	71.17076110839845	42.96320724487305	359.4140625000001	46.03535461425782	-8.788500785827638	418.8632202148439	60.78892517089845	101.4214401245117	694.9092407226564	835.2541503906252	-34.03764343261719	700.6696166992189	845.3441162109377	26.39109039306641	703.5540771484376	765.2000732421876	14.57434177398682	692.9550170898439	773.8789062500002	73.78868865966798	657.7675781250001	424.3970336914064	-157.1576232910157	671.5754394531251	380.0919494628907	-131.0416564941407	656.0914916992189	371.5370483398438	-177.5632019042969	653.3797607421876	326.3585205078126	-144.437240600586	583.5732421875001	298.8919372558594	-295.7699279785157	606.4313964843751	271.2908630371094	-327.4892578125001	549.4340820312501	270.3208312988282	-312.8052368164063	576.4790649414064	117.9406967163086	-156.8833618164063	667.5495605468751	120.7018203735352	-222.213119506836	
328	1.3625	419.2904357910157	1154.0244140625	-216.408187866211	529.5522460937501	1149.300537109375	-220.7163391113282	364.2395019531251	1114.728881835938	-6.954492568969728	607.1250000000001	1112.808227539063	-14.93956851959229	300.7521667480469	830.315856933594	-73.97010803222658	313.9091491699219	819.466003417969	-14.85606098175049	317.5096435546876	749.7309570312501	-50.1465530395508	341.6960754394532	740.5280761718751	2.77459716796875	382.4667663574219	301.6740417480469	-140.7559661865235	379.4801940917969	284.8606262207032	-81.50973510742189	388.6787414550782	245.6568298339844	-126.3631820678711	398.9483032226564	230.7439727783204	-68.23838806152345	460.5524291992189	96.80870056152347	-187.0718078613282	491.2012023925782	59.29602432250978	-174.9081573486328	427.5759582519532	60.34481048583986	-185.3756256103516	498.258758544922	75.91371917724611	-106.0405578613282	398.1310119628907	73.39160919189455	-128.67333984375	479.5811767578126	96.97302246093753	-51.749080657959	471.3571166992189	81.28577423095705	-20.32348823547364	422.6829833984376	105.9830322265625	-16.51591682434082	382.3057556152344	49.64159011840822	-86.11059570312501	467.4584960937501	55.78076934814455	34.5691032409668	412.8267211914064	71.11287689208986	43.07578659057618	359.4013671875001	46.01054763793946	-8.766611099243166	418.812713623047	60.60712814331056	101.519027709961	695.1129760742189	836.5484619140627	-25.45336151123048	700.1909179687501	847.427429199219	34.8109245300293	703.4410400390626	767.2547607421876	23.94625091552735	692.1177978515626	776.6777343750002	83.07389068603517	657.3146972656251	422.8090209960939	-143.6994781494141	671.1250000000001	378.9656677246094	-116.7502059936524	655.8636474609376	369.6112670898438	-163.2113037109375	652.9368286132814	324.9526062011719	-129.1871032714844	583.1672973632814	294.4105529785157	-280.2943725585938	606.1347045898439	266.1510009765626	-311.3678894042969	549.1940917968751	265.4578247070313	-296.5527038574219	576.3833618164064	116.5538940429688	-137.3598022460938	667.5316162109376	118.0671920776367	-202.5760040283204	
